<?xml version="1.0" encoding="UTF-8" standalone="no"?>
<!-- Created with Inkscape (http://www.inkscape.org/) -->

<svg
   width="1200"
   height="1200"
   viewBox="0 0 1200 1200"
   version="1.1"
   id="svg5"
   inkscape:version="1.4 (e7c3feb100, 2024-10-09)"
   sodipodi:docname="inkscape-icon_1200x1200.svg"
   xml:space="preserve"
   xmlns:inkscape="http://www.inkscape.org/namespaces/inkscape"
   xmlns:sodipodi="http://sodipodi.sourceforge.net/DTD/sodipodi-0.dtd"
   xmlns:xlink="http://www.w3.org/1999/xlink"
   xmlns="http://www.w3.org/2000/svg"
   xmlns:svg="http://www.w3.org/2000/svg"
   xmlns:rdf="http://www.w3.org/1999/02/22-rdf-syntax-ns#"
   xmlns:cc="http://creativecommons.org/ns#"
   xmlns:dc="http://purl.org/dc/elements/1.1/"><title
     id="title1">AutomataCI's Insignia</title><sodipodi:namedview
     id="namedview7"
     pagecolor="#ffffff"
     bordercolor="#666666"
     borderopacity="1.0"
     inkscape:pageshadow="2"
     inkscape:pageopacity="0.0"
     inkscape:pagecheckerboard="true"
     inkscape:document-units="px"
     showgrid="false"
     units="px"
     width="1200px"
     inkscape:zoom="0.26425487"
     inkscape:cx="959.30115"
     inkscape:cy="280.03268"
     inkscape:window-width="1920"
     inkscape:window-height="971"
     inkscape:window-x="0"
     inkscape:window-y="40"
     inkscape:window-maximized="1"
     inkscape:current-layer="svg5"
     inkscape:showpageshadow="0"
     inkscape:deskcolor="#505050" /><defs
     id="defs2"><linearGradient
       id="linearGradient118"
       inkscape:collect="always"><stop
         style="stop-color:#69ceff;stop-opacity:1;"
         offset="0"
         id="stop118" /><stop
         style="stop-color:#0100b7;stop-opacity:1;"
         offset="1"
         id="stop119" /></linearGradient><linearGradient
       inkscape:collect="always"
       xlink:href="#linearGradient118"
       id="linearGradient119"
       x1="567.62317"
       y1="79.443375"
       x2="567.62317"
       y2="1028.0262"
       gradientUnits="userSpaceOnUse"
       gradientTransform="matrix(0.93557954,0,0,0.93557954,70.861466,75.674371)" /></defs><path
     id="foreground"
     style="fill:url(#linearGradient119);"
     d="m 598.55025,162.30867 c -12.18108,0 -24.43635,7.25637 -31.79874,21.31185 a 1.8663544,1.8663544 0 0 0 -0.007,0.0128 l -415.24978,809.86468 0.34171,-0.46779 c -0.87222,0.87222 -1.03984,1.75407 -1.2517,2.74278 -0.21187,0.98872 -0.33426,2.10123 -0.41846,3.28002 -0.1684,2.35757 -0.16628,4.96917 -0.16628,6.90357 0,16.4082 12.45465,28.9481 27.65807,28.9481 11.08541,0 20.66357,-6.8017 24.87142,-15.1976 l 0.0109,-0.021 159.7502,-310.55762 211.01887,310.77132 -0.0567,-0.088 c 6.10125,10.1689 15.76436,15.4133 25.458,15.4133 9.69363,0 19.35675,-5.2444 25.45799,-15.4133 l -0.0548,0.084 211.01338,-312.04496 159.75386,311.83486 c 4.20261,8.4053 13.87311,15.2178 26.17071,15.2178 15.2034,0 28.9481,-12.4363 28.9481,-28.9482 0,-4.6697 -2.7856,-9.87109 -6.655,-16.32691 l -413.93365,-805.94695 -0.004,-0.006 c -6.70747,-14.08111 -18.67778,-21.36787 -30.8571,-21.36787 z m 0,3.73135 c 10.70918,0 21.30335,6.25129 27.49178,19.247 a 1.8663544,1.8663544 0 0 0 0.0238,0.0512 l 413.96097,805.99628 a 1.8663544,1.8663544 0 0 0 0.058,0.10782 c 3.8312,6.38521 6.1819,11.4749 6.1819,14.5143 0,14.4383 -12.0474,25.2149 -25.215,25.2149 -10.9152,0 -19.2972,-6.083 -22.8322,-13.1529 a 1.8663544,1.8663544 0 0 0 -0.009,-0.017 L 837.01157,703.34043 a 1.8663544,1.8663544 0 0 0 -3.20692,-0.1937 L 621.02243,1017.8066 a 1.8663544,1.8663544 0 0 0 -0.0548,0.086 c -5.50508,9.1751 -13.8959,13.6025 -22.25656,13.6025 -8.36066,0 -16.7533,-4.4274 -22.25838,-13.6025 a 1.8663544,1.8663544 0 0 0 -0.0548,-0.088 L 363.61381,704.43315 a 1.8663544,1.8663544 0 0 0 -3.20327,0.19371 L 199.21128,1017.9985 a 1.8663544,1.8663544 0 0 0 -0.009,0.021 c -3.53494,7.0699 -12.00473,13.1529 -21.5439,13.1529 -13.16761,0 -23.92489,-10.673 -23.92489,-25.215 0,-1.9343 0.001,-4.4807 0.15532,-6.63673 0.077,-1.078 0.19636,-2.06083 0.34719,-2.76471 0.15083,-0.70387 0.4668,-1.11184 0.23937,-0.88441 a 1.8663544,1.8663544 0 0 0 0.34171,-0.46961 L 570.05893,185.35098 c 6.82312,-13.02597 17.78215,-19.31096 28.49132,-19.31096 z m 0.80584,77.1908 a 1.8663544,1.8663544 0 0 0 -1.66102,1.01232 L 388.78126,650.46557 a 1.8663544,1.8663544 0 0 0 0.11511,1.90039 l 208.91382,308.21316 a 1.8663544,1.8663544 0 0 0 3.09546,-0.009 L 808.52938,651.06836 a 1.8663544,1.8663544 0 0 0 0.11147,-1.89125 L 601.01528,244.24497 a 1.8663544,1.8663544 0 0 0 -1.65919,-1.01415 z m -0.004,5.95153 L 804.81804,649.90276 599.34695,956.19542 392.60763,651.18735 Z m 28.88976,171.24394 c -23.99133,0 -43.31623,20.1704 -43.31623,44.47841 0,20.9845 14.43017,38.81862 33.80329,43.32172 l -8.09679,109.46828 -92.38665,-14.041 c 0.0115,-0.35994 0.10781,-0.69728 0.10781,-1.05984 0,-18.3762 -14.95454,-33.51641 -33.2953,-33.51641 -6.19843,0 -11.94093,1.83966 -16.91901,4.83871 l -41.0522,-48.73602 c 5.58906,-6.00871 9.0817,-14.01135 9.0817,-22.81206 0,-18.37585 -14.95272,-33.51641 -33.29348,-33.51641 -18.34075,0 -33.2953,15.1402 -33.2953,33.51641 0,18.3762 14.95455,33.51641 33.2953,33.51641 6.19874,0 11.94076,-1.84121 16.919,-4.84053 l 41.05221,48.73784 c -5.58906,6.00871 -9.0817,14.01135 -9.0817,22.81206 0,9.55992 4.10171,18.18317 10.5673,24.31594 l -37.85991,60.45634 c -7.00524,-3.15195 -14.73778,-4.94286 -22.88698,-4.94286 -18.76871,0 -35.38447,9.34549 -45.66432,23.59232 l -18.99665,-14.45215 c 2.36297,-4.59661 3.82638,-9.72354 3.82638,-15.21595 0,-18.3762 -14.95455,-33.51641 -33.2953,-33.51641 -18.34077,0 -33.29348,15.14058 -33.29348,33.51641 0,18.37584 14.95235,33.51824 33.29348,33.51823 9.51203,0 18.05479,-4.1232 24.13136,-10.6075 l 19.47541,14.81578 c -3.78665,7.63707 -5.97162,16.20766 -5.97162,25.2844 0,18.38075 8.77973,34.75979 22.30406,45.18922 l -17.1931,24.56628 c -6.64233,-4.0988 -14.36074,-6.59656 -22.69328,-6.59657 -24.15447,10e-6 -43.82971,19.90708 -43.82971,44.14949 0,24.2424 19.67524,44.14948 43.82971,44.14948 24.15446,0 43.82788,-19.90734 43.82788,-44.14948 0,-12.51349 -5.30307,-23.80287 -13.69747,-31.86453 l 17.59693,-25.14004 c 7.87498,4.21496 16.83514,6.63128 26.34972,6.63128 9.04479,0 17.57015,-2.21582 25.15832,-6.0502 l 47.63416,71.64127 c -6.21193,6.10562 -10.10317,14.58461 -10.10317,23.92854 0,18.37585 14.95273,33.51641 33.29348,33.51641 18.34076,0 33.29348,-15.14056 33.29348,-33.51641 0,-18.37583 -14.95272,-33.51639 -33.29348,-33.51639 -5.66234,0 -10.91986,1.57736 -15.59604,4.11325 l -47.25042,-71.06566 c 14.12405,-10.37826 23.36025,-27.131 23.36025,-45.98594 0,-19.76087 -10.11848,-37.24459 -25.40683,-47.46421 l 37.32268,-59.60117 c 4.54535,2.35784 9.61525,3.81906 15.06064,3.81906 14.74997,0 27.16275,-9.85622 31.5155,-23.24878 l 93.3661,14.18901 -9.09267,122.9337 c -12.79314,0.46318 -24.53715,5.09576 -33.93852,12.623 l -8.61391,-8.80029 c 4.60156,-5.75616 7.47551,-12.95616 7.47551,-20.84953 0,-18.37621 -14.95455,-33.51641 -33.2953,-33.51641 -18.34077,0 -33.29348,15.14057 -33.29348,33.51641 0,18.37584 14.95235,33.51823 33.29348,33.51823 7.10686,0 13.66933,-2.31665 19.08618,-6.1708 l 8.5463,8.73085 c -9.45969,10.43119 -15.28722,24.25149 -15.28722,39.41129 0,30.71658 23.73933,56.06739 53.73735,58.34581 l 2.74278,82.76225 c -21.88902,2.53725 -39.02572,21.18285 -39.02572,43.81143 0,24.33714 19.74895,44.32304 43.99781,44.32304 24.24888,0 43.99965,-19.9856 43.99965,-44.32304 0,-22.83039 -17.44435,-41.60639 -39.61412,-43.87174 l -2.73912,-82.73118 c 23.72634,-2.05158 43.42976,-18.54745 50.408,-40.65933 l 179.82313,34.35514 c -0.0727,1.03528 -0.31064,2.02433 -0.31064,3.07717 0,24.33738 19.75079,44.32308 43.99965,44.32308 24.24887,0 43.99965,-19.9857 43.99965,-44.32308 0,-24.33737 -19.75104,-44.32125 -43.99965,-44.32125 -19.97647,0 -36.70843,13.64464 -42.05174,32.03081 L 660.36062,816.96949 c 0.40826,-2.79042 0.69072,-5.62069 0.69072,-8.52072 0,-6.79669 -1.22084,-13.30575 -3.35492,-19.38952 l 90.31815,-36.23178 c 11.07617,18.60489 31.22807,31.16101 54.2764,31.16101 34.91543,0 63.31973,-28.72211 63.31973,-63.82406 0,-25.95841 -15.5552,-48.38901 -37.76854,-58.33302 l 11.78793,-31.88645 c 1.7695,0.296 3.55482,0.55367 5.40517,0.55367 18.34112,0 33.29348,-15.14239 33.29348,-33.51824 0,-18.37584 -14.95273,-33.5164 -33.29348,-33.5164 -18.34077,0 -33.29348,15.14056 -33.29348,33.5164 0,13.21944 7.79798,24.66593 18.96924,30.10484 l -11.68012,31.59956 c -5.34203,-1.48368 -10.93786,-2.3426 -16.73993,-2.3426 -16.44812,0 -31.40176,6.42664 -42.6712,16.8386 l -7.63447,-6.04472 c 6.11373,-7.61962 9.93321,-17.16784 9.93321,-27.65441 10e-6,-24.33738 -19.75077,-44.32308 -43.99964,-44.32308 -20.12225,0 -36.96425,13.84008 -42.176,32.43098 l -55.83326,-8.48599 8.11688,-109.74056 c 0.0738,3.8e-4 0.14173,0.0219 0.21562,0.0219 23.99159,0 43.31807,-20.17197 43.31807,-44.48023 0,-24.30827 -19.32674,-44.47841 -43.31807,-44.47841 z m -6.84326,10.07028 c -4.41975,0.93719 -8.5275,2.76347 -12.1406,5.29004 3.61321,-2.52592 7.72042,-4.3534 12.1406,-5.29004 z m 13.68651,0 c 4.42029,0.93666 8.52719,2.7641 12.14061,5.29004 -3.61331,-2.52655 -7.72076,-4.35287 -12.14061,-5.29004 z m -25.82893,5.29004 c -1.80636,1.26325 -3.48876,2.70286 -5.0251,4.29233 -3.07293,3.17926 -5.56089,6.96285 -7.27997,11.163 1.71874,-4.20059 4.20727,-7.98396 7.27997,-11.163 1.53685,-1.59002 3.21795,-3.02886 5.0251,-4.29233 z m 37.97136,0 c 5.42061,3.78961 9.72825,9.15378 12.3069,15.45533 -2.57881,-6.30006 -6.8872,-11.66538 -12.3069,-15.45533 z m -18.98568,3.35127 c 13.53495,0 24.60647,11.23067 24.60647,25.76682 0,14.53614 -11.07188,25.76863 -24.60647,25.76863 -13.53461,0 -24.60464,-11.23215 -24.60464,-25.76863 0,-14.53649 11.06968,-25.76682 24.60464,-25.76682 z m -230.18728,39.56113 c -9.33761,1.93695 -16.71357,9.38502 -18.6312,18.80661 1.91604,-9.42756 9.28796,-16.87214 18.6312,-18.80661 z m 9.64085,0 c 7.78693,1.61225 14.20235,7.05322 17.2333,14.27855 -3.03269,-7.22143 -9.45193,-12.6643 -17.2333,-14.27855 z m 192.38768,5.83458 c 4.50728,6.89898 11.37939,11.9211 19.35298,14.14882 v 0.002 c -7.97527,-2.22683 -14.84557,-7.25069 -19.35298,-14.15064 z m 56.31932,0 c -4.88372,7.47537 -12.47575,12.90731 -21.31732,14.78107 8.8399,-1.87458 16.43362,-7.30658 21.31732,-14.78107 z m -253.52743,3.02967 c 8.14242,0 14.58189,6.43745 14.58189,14.80482 0,8.36735 -6.43947,14.80482 -14.58189,14.80482 -8.14241,0 -14.58371,-6.43799 -14.58371,-14.80482 0,-8.36684 6.4413,-14.80482 14.58371,-14.80482 z m -23.45162,19.66727 c 1.91763,9.42159 9.29359,16.86966 18.6312,18.80662 -9.34324,-1.93447 -16.71516,-9.37905 -18.6312,-18.80662 z m 45.50535,4.52806 c -0.96156,2.29221 -2.34247,4.33615 -3.92139,6.2037 l -0.004,-0.004 c 1.57881,-1.86717 2.96304,-3.9093 3.92505,-6.20004 z m -11.23975,12.03828 0.004,0.004 c -1.88717,0.97496 -3.86279,1.7947 -5.99721,2.23662 2.13257,-0.44241 4.10738,-1.26511 5.99356,-2.24027 z m 426.5256,49.51445 c -7.78137,1.61425 -14.20062,7.05713 -17.23331,14.27855 3.03096,-7.22533 9.44638,-12.66631 17.23331,-14.27855 z m 9.64085,0 c 7.78693,1.61224 14.20235,7.05322 17.2333,14.27855 -3.03268,-7.22142 -9.45192,-12.6643 -17.2333,-14.27855 z m -369.61787,5.61347 c -2.13256,0.44241 -4.10737,1.26511 -5.99356,2.24028 l -0.002,-0.004 c 1.88678,-0.9746 3.8615,-1.7948 5.99538,-2.23662 z m 9.64086,0 c 9.34324,1.93447 16.71514,9.37905 18.63118,18.80662 -1.91763,-9.42159 -9.29359,-16.86966 -18.63118,-18.80662 z m 355.15659,3.25078 c 8.14241,0 14.58188,6.43746 14.58188,14.80481 0,8.36737 -6.44,14.80664 -14.58188,14.80664 -8.14188,0 -14.58189,-6.43927 -14.58189,-14.80664 0,-8.36735 6.43947,-14.80481 14.58189,-14.80481 z m -378.10935,4.82408 0.004,0.004 c -1.57881,1.86717 -2.96304,3.9093 -3.92505,6.20004 0.96156,-2.29221 2.34248,-4.33615 3.9214,-6.2037 z m 18.13233,0.78939 c 8.1424,0 14.58371,6.43799 14.58371,14.80482 0,8.36683 -6.44185,14.80664 -14.58371,14.80664 -8.14188,0 -14.58188,-6.43927 -14.58188,-14.80664 0,-8.36735 6.43947,-14.80482 14.58188,-14.80482 z m 336.52723,14.0538 c 1.45952,7.17235 6.1405,13.10468 12.38363,16.42929 l -0.002,0.004 c -6.24501,-3.32264 -10.92337,-9.25567 -12.3818,-16.43294 z m 46.89957,0 c -1.91579,9.42802 -9.28839,16.87373 -18.63118,18.80844 9.33834,-1.93678 16.71382,-9.38619 18.63118,-18.80844 z m -406.87659,5.61348 c 0.87983,4.32367 2.97014,8.17672 5.81082,11.32746 l -0.002,0.006 c -2.84102,-3.15061 -4.92973,-7.00592 -5.809,-11.33294 z m 236.94648,3.03515 c -1.84277,1.25747 -3.55992,2.68993 -5.12742,4.27223 1.56799,-1.58288 3.28385,-3.0145 5.12742,-4.27223 z m 38.72787,0 c 1.84358,1.25773 3.55944,2.68935 5.12742,4.27223 -1.56749,-1.5823 -3.28463,-3.01476 -5.12742,-4.27223 z M 507.278,611.45081 h 0.002 c -2.93803,7.4817 -9.43033,13.16329 -17.40142,14.81394 7.96515,-1.65246 14.45959,-7.33718 17.39959,-14.81394 z m 210.64061,2.41935 c 14.04565,0 25.28806,11.28842 25.28805,25.61149 10e-6,14.32305 -11.24205,25.60965 -25.28805,25.60965 -14.04599,0 -25.28806,-11.2866 -25.28806,-25.60965 0,-14.32307 11.2424,-25.61149 25.28806,-25.61149 z m -242.98024,10.53622 c 1.68234,0.79978 3.43375,1.47111 5.30101,1.85837 -1.86797,-0.38681 -3.62025,-1.05737 -5.30283,-1.85653 z m 211.0609,1.47281 c -0.41746,0.99525 -0.635,2.08324 -0.96116,3.12286 h -0.002 c 0.32608,-1.03984 0.54561,-2.12744 0.96299,-3.12286 z m 63.83869,0 c 1.75362,4.18221 2.72451,8.77931 2.7245,13.60246 0,4.82253 -0.97132,9.41901 -2.7245,13.60062 -0.87706,2.0919 -1.95006,4.07967 -3.19596,5.94056 1.24582,-1.86038 2.31878,-3.84945 3.19596,-5.94056 1.75434,-4.18224 2.7245,-8.77807 2.7245,-13.60062 10e-6,-4.82257 -0.97019,-9.42004 -2.7245,-13.60246 z m -130.62117,2.58381 54.97078,8.35261 c -0.0546,0.8991 -0.26861,1.75388 -0.26861,2.66604 0,24.33736 19.75105,44.32124 43.99965,44.32124 10.42186,0 19.88405,-3.84424 27.43331,-9.98621 l 7.81538,6.18908 c -8.86215,10.98905 -14.19632,24.97045 -14.19632,40.15866 0,8.5893 1.72144,16.78691 4.80215,24.28486 l -89.81746,36.03078 c -8.766,-16.14936 -24.87343,-27.69387 -43.75844,-30.09021 z m 64.05797,11.01865 c 0,4.82255 0.97015,9.41838 2.72451,13.60062 0.87717,2.09111 1.95013,4.08018 3.19595,5.94056 -1.24591,-1.86089 -2.3189,-3.84866 -3.19595,-5.94056 -1.75319,-4.18161 -2.72451,-8.77809 -2.72451,-13.60062 z m -380.63991,13.19678 c -7.78137,1.61426 -14.20062,7.05713 -17.2333,14.27855 3.03095,-7.22533 9.44636,-12.6663 17.2333,-14.27855 z m 9.64085,0 c 9.34323,1.93447 16.71515,9.37905 18.63119,18.80662 -1.91763,-9.42159 -9.29359,-16.86966 -18.63119,-18.80662 z m 376.91978,6.34623 c 3.73712,5.58012 9.02851,10.01602 15.24336,12.67235 -6.21622,-2.65588 -11.50641,-7.09137 -15.24336,-12.67235 z m 57.44678,0 c -0.5673,0.84723 -1.28926,1.56498 -1.92598,2.35722 l -0.002,-0.002 c 0.63665,-0.79207 1.36055,-1.50839 1.92781,-2.3554 z m -439.18698,2.51802 c 8.14239,0 14.58371,6.43798 14.58371,14.80482 0,8.36683 -6.44185,14.80665 -14.58371,14.80664 -8.14188,0 -14.58189,-6.43928 -14.58189,-14.80664 0,-8.36736 6.43947,-14.80482 14.58189,-14.80482 z m 430.46709,6.39192 0.002,0.002 c -2.03795,1.46338 -4.19389,2.76449 -6.5253,3.76059 2.33075,-0.9962 4.48589,-2.29912 6.52347,-3.76242 z m 34.19981,7.068 c -1.79669,1.22548 -3.48442,2.59457 -5.11828,4.02372 l -0.002,-0.002 c 1.63442,-1.42969 3.32271,-2.79605 5.1201,-4.0219 z m 60.33757,0 c 4.30646,2.93704 8.17029,6.48445 11.46999,10.51979 -3.2993,-4.0346 -7.16436,-7.58303 -11.46999,-10.51979 z m -30.16878,0.0512 c 24.7103,0 44.60814,20.02567 44.60814,45.11065 0,25.08497 -19.89805,45.11247 -44.60814,45.11247 -24.7101,0 -44.60814,-20.0275 -44.60814,-45.11247 0,-25.08498 19.89784,-45.11065 44.60814,-45.11065 z m -518.28549,6.15618 c 1.91737,9.42225 9.29286,16.87167 18.63119,18.80844 -9.34279,-1.93471 -16.71539,-9.38042 -18.63119,-18.80844 z m 46.90141,0 c -0.32932,1.6204 -0.83144,3.17612 -1.46549,4.66145 h -0.002 c 0.6352,-1.48614 1.13742,-3.04047 1.46732,-4.66145 z m -6.75371,12.39461 0.004,0.002 c -3.2211,3.17588 -7.30595,5.46458 -11.88113,6.412 4.57147,-0.9484 8.65678,-3.23872 11.87747,-6.41382 z m 91.44741,0.31429 c 1.3201,0.41466 2.6063,0.90494 3.87389,1.43078 l -0.002,0.002 c -1.26721,-0.52576 -2.55236,-1.01797 -3.87205,-1.43261 z m 339.24078,0.28872 c -1.66162,3.08644 -3.03628,6.35342 -4.08768,9.76328 1.0514,-3.41055 2.42586,-6.67633 4.08768,-9.76328 z m 94.8992,0 c 1.66181,3.08695 3.03626,6.35273 4.08768,9.76328 -1.05141,-3.40986 -2.42606,-6.67684 -4.08768,-9.76328 z m -448.1554,6.9273 c 20.94273,0 37.78499,16.94082 37.78499,38.22354 0,21.28272 -16.84226,38.22354 -37.78499,38.22354 -20.94271,0 -37.78315,-16.94057 -37.78315,-38.22354 0,-21.28295 16.84044,-38.22354 37.78315,-38.22354 z m 33.33002,4.5847 c 4.26601,4.30587 7.71879,9.43287 10.10499,15.1246 -2.38636,-5.69161 -5.83886,-10.81858 -10.10499,-15.1246 z m 92.73932,3.57056 c -7.78136,1.61425 -14.20062,7.05712 -17.2333,14.27855 3.03095,-7.22533 9.44637,-12.6663 17.2333,-14.27855 z m 9.64086,0 c 9.34324,1.93447 16.71515,9.37904 18.63119,18.80661 -1.91763,-9.42159 -9.29359,-16.86966 -18.63119,-18.80661 z m -4.82042,8.86425 c 8.14239,0 14.58371,6.43799 14.58371,14.80482 0,8.36683 -6.44185,14.80664 -14.58371,14.80664 -8.14188,0 -14.58189,-6.43929 -14.58189,-14.80664 0,-8.36737 6.43947,-14.80482 14.58189,-14.80482 z m -23.4498,19.66727 c 1.91737,9.42226 9.29286,16.87167 18.6312,18.80844 -9.34279,-1.93471 -16.7154,-9.38043 -18.6312,-18.80844 z m 46.90141,0 c -0.69953,3.44197 -2.17796,6.57567 -4.1626,9.31742 l -0.002,-0.004 c 1.98496,-2.7416 3.46435,-5.87393 4.16442,-9.31377 z m -11.0223,15.68375 0.002,0.002 c -2.32116,1.43591 -4.85869,2.55298 -7.61072,3.12287 2.75026,-0.57058 5.2884,-1.68833 7.60889,-3.12469 z m 215.74794,1.30104 c 1.09992,1.34519 2.26383,2.63609 3.48467,3.86841 -1.22117,-1.23257 -2.38449,-2.52289 -3.48467,-3.86841 z m 83.27754,0 c -1.10019,1.34552 -2.2635,2.63584 -3.48467,3.86841 1.22084,-1.23232 2.38474,-2.52322 3.48467,-3.86841 z m -398.90956,3.06621 c -2.3862,5.69173 -5.83898,10.81874 -10.10499,15.1246 4.26613,-4.30601 7.71863,-9.43298 10.10499,-15.1246 z m 143.4196,3.57604 c -5.47481,1.71978 -10.41787,4.53232 -14.87791,7.95791 4.46005,-3.42554 9.40279,-6.23823 14.87791,-7.95791 z m 28.992,0 c 7.63261,2.39733 14.46253,6.63987 19.97791,12.20639 2.20662,2.22708 4.20206,4.66499 5.95519,7.28363 -1.75295,-2.61828 -3.7489,-5.05675 -5.95519,-7.28363 -5.51572,-5.56719 -12.34509,-9.80872 -19.97791,-12.20639 z m 150.53694,0.74189 c 2.66499,2.22023 5.54498,4.18823 8.60294,5.86564 -3.05848,-1.67749 -5.93758,-3.64516 -8.60294,-5.86564 z m 68.6445,0 c -2.66536,2.22048 -5.54447,4.18815 -8.60296,5.86564 3.05797,-1.67741 5.93796,-3.64541 8.60296,-5.86564 z m -233.67744,6.40104 c 21.8369,0 39.40397,17.67211 39.40397,39.85715 0,22.18503 -17.56731,39.85897 -39.40397,39.85897 -21.83666,0 -39.40398,-17.67394 -39.40398,-39.85897 0,-22.18504 17.56709,-39.85715 39.40398,-39.85715 z m -288.84191,46.01882 c -6.18434,2.64331 -11.4496,7.05751 -15.16845,12.61022 3.7187,-5.55358 8.98275,-9.96733 15.16845,-12.61022 z m 13.41424,6.61849 c 13.95172,10e-6 25.11629,11.20966 25.11629,25.4379 0,14.22823 -11.16457,25.43789 -25.11629,25.43789 -13.95173,0 -25.11812,-11.21001 -25.11812,-25.43789 0,-14.2279 11.16639,-25.43789 25.11812,-25.4379 z m 24.73438,1.2846 c 1.40176,1.46225 2.71394,3.01564 3.84648,4.70713 -1.1325,-1.69112 -2.44673,-3.24323 -3.8483,-4.70531 z m 3.84648,4.70895 c 2.47845,3.70206 4.27066,7.9094 5.18954,12.43664 -0.9193,-4.5264 -2.71062,-8.73462 -5.18954,-12.43664 z m 512.27,4.10048 c -6.21487,2.65632 -11.50626,7.09223 -15.24337,12.67235 3.73694,-5.58098 9.02713,-10.01647 15.24337,-12.67235 z m 26.96003,0 c 6.21623,2.65588 11.50641,7.09137 15.24337,12.67235 -3.73712,-5.58012 -9.0285,-10.01603 -15.24337,-12.67235 z m -332.81231,4.6377 c 3.50576,5.23627 7.98331,9.75499 13.1712,13.29363 6.48535,4.42364 14.08162,7.31464 22.27484,8.15526 -8.19362,-0.84054 -15.78954,-3.73186 -22.27484,-8.15526 -5.18825,-3.53872 -9.66547,-8.05691 -13.1712,-13.29363 z m 80.85819,0 c -3.50574,5.23672 -7.98297,9.75491 -13.17121,13.29363 -6.48531,4.4234 -14.08122,7.31472 -22.27483,8.15526 8.1932,-0.84062 15.78948,-3.73162 22.27483,-8.15526 5.18789,-3.53864 9.66544,-8.05736 13.17121,-13.29363 z m 238.4741,1.968 c 14.046,0 25.28806,11.2866 25.28806,25.60966 0,14.32307 -11.24241,25.61149 -25.28806,25.61149 -14.04566,0 -25.28806,-11.28842 -25.28806,-25.61149 0,-14.32306 11.24207,-25.60966 25.28806,-25.60966 z m -28.72338,6.06848 c -1.24582,1.86038 -2.31878,3.84945 -3.19596,5.94056 0.87705,-2.0919 1.95005,-4.07967 3.19596,-5.94056 z m 57.44677,0 c 1.24591,1.86089 2.3189,3.84866 3.19596,5.94056 1.75318,4.18161 2.72451,8.77809 2.72451,13.60062 0,4.82315 -0.97089,9.42024 -2.72451,13.60245 1.75432,-4.1824 2.72451,-8.77989 2.72451,-13.60245 0,-4.82255 -0.97016,-9.41838 -2.72451,-13.60062 -0.87718,-2.09111 -1.95014,-4.08018 -3.19596,-5.94056 z m -549.28386,9.6774 c -0.91888,4.52723 -2.71109,8.73457 -5.18954,12.43663 2.47892,-3.70202 4.27024,-7.91023 5.18954,-12.43663 z m 131.46903,8.46955 c -1.98681,0.41216 -3.83806,1.15304 -5.61348,2.03014 l -0.002,-0.002 c 1.77624,-0.87675 3.62698,-1.61664 5.61531,-2.02831 z m 9.64084,0 c 7.78694,1.61225 14.20236,7.05323 17.23331,14.27856 -3.03269,-7.22143 -9.45193,-12.66431 -17.23331,-14.27856 z m 344.80675,1.39423 c 0,4.82256 0.97018,9.42005 2.72451,13.60245 -1.75362,-4.18221 -2.72451,-8.7793 -2.72451,-13.60245 z m -548.26971,2.57467 c 3.71885,5.55272 8.98411,9.96691 15.16845,12.61023 -6.1857,-2.64289 -11.44975,-7.05665 -15.16845,-12.61023 z m 57.16355,0 c -3.71838,5.55358 -8.98302,9.96737 -15.16845,12.61023 6.18408,-2.64336 11.44992,-7.0575 15.16845,-12.61023 z m 123.61344,3.7807 0.002,0.004 c -1.70239,1.94423 -3.17294,4.10344 -4.19002,6.5253 1.01675,-2.42377 2.48532,-4.5842 4.18819,-6.52896 z m 17.86555,1.11466 c 8.14241,0 14.58189,6.43746 14.58189,14.8048 0,8.36737 -6.43948,14.80482 -14.58189,14.80482 -8.14241,0 -14.58189,-6.43745 -14.58189,-14.80482 0,-8.36734 6.43948,-14.8048 14.58189,-14.8048 z m 359.77967,17.24791 c 1.56749,1.5823 3.28464,3.01476 5.12741,4.27224 -1.84357,-1.25773 -3.55943,-2.68935 -5.12741,-4.27224 z m 48.9827,0 c -1.56798,1.58289 -3.28384,3.01451 -5.12741,4.27224 1.84278,-1.25748 3.55992,-2.68994 5.12741,-4.27224 z m -430.8161,6.94741 c 3.03269,7.22143 9.45193,12.6643 17.23331,14.27855 -7.78694,-1.61225 -14.20236,-7.05321 -17.23331,-14.27855 z m 44.10746,0 c -3.03095,7.22534 -9.44637,12.6663 -17.23331,14.27855 7.78138,-1.61425 14.20062,-7.05712 17.23331,-14.27855 z m 73.17073,65.94922 c -8.28689,3.54214 -14.92935,10.2508 -18.4375,18.61474 -1.75418,4.18223 -2.72451,8.77815 -2.72451,13.60063 0,-4.8226 0.9715,-9.419 2.72451,-13.60063 3.50737,-8.36643 10.14848,-15.07316 18.4375,-18.61474 z m 26.96004,0 c 6.21623,2.65588 11.50641,7.09137 15.24337,12.67235 -3.73713,-5.58012 -9.02851,-10.01602 -15.24337,-12.67235 z m -13.48003,6.60571 c 14.04602,0 25.28806,11.28661 25.28806,25.60966 0,14.32301 -11.24239,25.61151 -25.28806,25.61151 -14.04565,0 -25.28622,-11.2881 -25.28622,-25.61151 0,-14.32339 11.24023,-25.60966 25.28622,-25.60966 z m 28.7234,6.06847 c 1.2459,1.86089 2.3189,3.84866 3.19595,5.94056 1.75318,4.18161 2.72451,8.7781 2.72451,13.60063 0,4.82314 -0.97088,9.42021 -2.72451,13.60241 1.75432,-4.1824 2.72451,-8.77986 2.72451,-13.60241 0,-4.82256 -0.97016,-9.41839 -2.72451,-13.60063 -0.87717,-2.09111 -1.95013,-4.08018 -3.19595,-5.94056 z m -60.64091,33.1455 c 2.63111,6.2724 7.02523,11.6132 12.55358,15.3858 -5.52924,-3.7723 -9.92276,-9.1119 -12.55358,-15.3858 z m 56.40887,11.1136 c -1.56798,1.5829 -3.28384,3.0145 -5.12742,4.2722 1.84278,-1.2574 3.55992,-2.6899 5.12742,-4.2722 z"
     inkscape:label="foreground" /><metadata
     id="metadata1"><rdf:RDF><cc:Work
         rdf:about=""><dc:title>AutomataCI's Insignia</dc:title><dc:date>Sun, 27 Oct 2024 09:42:34 +0000</dc:date><dc:creator><cc:Agent><dc:title>(Holloway) Chew, Kean Ho</dc:title></cc:Agent></dc:creator><cc:license
           rdf:resource="http://creativecommons.org/licenses/by-nd/4.0/" /><dc:rights><cc:Agent><dc:title>CC-BY-ND-4.0</dc:title></cc:Agent></dc:rights><dc:publisher><cc:Agent><dc:title>(Holloway) Chew, Kean Ho</dc:title></cc:Agent></dc:publisher><dc:identifier>chewkeanho-automataci</dc:identifier><dc:source>https://github.com/ChewKeanHo/AutomataCI/</dc:source><dc:relation>Application</dc:relation><dc:language>English</dc:language><dc:subject><rdf:Bag><rdf:li>AutomataCI</rdf:li><rdf:li>CI</rdf:li><rdf:li>Logo</rdf:li></rdf:Bag></dc:subject><dc:coverage>logo, automataci, ci</dc:coverage><dc:description>The (Holloway) Chew, Kean Ho's AutomataCI logo.</dc:description></cc:Work><cc:License
         rdf:about="http://creativecommons.org/licenses/by-nd/4.0/"><cc:permits
           rdf:resource="http://creativecommons.org/ns#Reproduction" /><cc:permits
           rdf:resource="http://creativecommons.org/ns#Distribution" /><cc:requires
           rdf:resource="http://creativecommons.org/ns#Notice" /><cc:requires
           rdf:resource="http://creativecommons.org/ns#Attribution" /></cc:License></rdf:RDF></metadata></svg>
